<svg width="20" height="18" viewBox="0 0 20 18" fill="none" xmlns="http://www.w3.org/2000/svg">
<path d="M0 1.5C0 1.16848 0.131696 0.850537 0.366117 0.616117C0.600537 0.381696 0.918479 0.25 1.25 0.25H18.75C19.0815 0.25 19.3995 0.381696 19.6339 0.616117C19.8683 0.850537 20 1.16848 20 1.5C20 1.83152 19.8683 2.14946 19.6339 2.38388C19.3995 2.6183 19.0815 2.75 18.75 2.75H1.25C0.918479 2.75 0.600537 2.6183 0.366117 2.38388C0.131696 2.14946 0 1.83152 0 1.5ZM0 16.5C0 16.1685 0.131696 15.8505 0.366117 15.6161C0.600537 15.3817 0.918479 15.25 1.25 15.25H18.75C19.0815 15.25 19.3995 15.3817 19.6339 15.6161C19.8683 15.8505 20 16.1685 20 16.5C20 16.8315 19.8683 17.1495 19.6339 17.3839C19.3995 17.6183 19.0815 17.75 18.75 17.75H1.25C0.918479 17.75 0.600537 17.6183 0.366117 17.3839C0.131696 17.1495 0 16.8315 0 16.5ZM1.25 7.75C0.918479 7.75 0.600537 7.8817 0.366117 8.11612C0.131696 8.35054 0 8.66848 0 9C0 9.33152 0.131696 9.64946 0.366117 9.88388C0.600537 10.1183 0.918479 10.25 1.25 10.25H11.25C11.5815 10.25 11.8995 10.1183 12.1339 9.88388C12.3683 9.64946 12.5 9.33152 12.5 9C12.5 8.66848 12.3683 8.35054 12.1339 8.11612C11.8995 7.8817 11.5815 7.75 11.25 7.75H1.25Z" fill="black"/>
</svg>
