<svg width="24" height="24" viewBox="0 0 24 24" fill="none" xmlns="http://www.w3.org/2000/svg">
<path d="M0.75 2C0.75 1.66848 0.881696 1.35054 1.11612 1.11612C1.35054 0.881696 1.66848 0.75 2 0.75H5.75C6.08152 0.75 6.39946 0.881696 6.63388 1.11612C6.8683 1.35054 7 1.66848 7 2V5.75C7 6.08152 6.8683 6.39946 6.63388 6.63388C6.39946 6.8683 6.08152 7 5.75 7H2C1.66848 7 1.35054 6.8683 1.11612 6.63388C0.881696 6.39946 0.75 6.08152 0.75 5.75V2ZM0.75 10.125C0.75 9.79348 0.881696 9.47554 1.11612 9.24112C1.35054 9.0067 1.66848 8.875 2 8.875H5.75C6.08152 8.875 6.39946 9.0067 6.63388 9.24112C6.8683 9.47554 7 9.79348 7 10.125V13.875C7 14.2065 6.8683 14.5245 6.63388 14.7589C6.39946 14.9933 6.08152 15.125 5.75 15.125H2C1.66848 15.125 1.35054 14.9933 1.11612 14.7589C0.881696 14.5245 0.75 14.2065 0.75 13.875V10.125ZM0.75 18.25C0.75 17.9185 0.881696 17.6005 1.11612 17.3661C1.35054 17.1317 1.66848 17 2 17H5.75C6.08152 17 6.39946 17.1317 6.63388 17.3661C6.8683 17.6005 7 17.9185 7 18.25V22C7 22.3315 6.8683 22.6495 6.63388 22.8839C6.39946 23.1183 6.08152 23.25 5.75 23.25H2C1.66848 23.25 1.35054 23.1183 1.11612 22.8839C0.881696 22.6495 0.75 22.3315 0.75 22V18.25ZM8.875 2C8.875 1.66848 9.0067 1.35054 9.24112 1.11612C9.47554 0.881696 9.79348 0.75 10.125 0.75H13.875C14.2065 0.75 14.5245 0.881696 14.7589 1.11612C14.9933 1.35054 15.125 1.66848 15.125 2V5.75C15.125 6.08152 14.9933 6.39946 14.7589 6.63388C14.5245 6.8683 14.2065 7 13.875 7H10.125C9.79348 7 9.47554 6.8683 9.24112 6.63388C9.0067 6.39946 8.875 6.08152 8.875 5.75V2ZM8.875 10.125C8.875 9.79348 9.0067 9.47554 9.24112 9.24112C9.47554 9.0067 9.79348 8.875 10.125 8.875H13.875C14.2065 8.875 14.5245 9.0067 14.7589 9.24112C14.9933 9.47554 15.125 9.79348 15.125 10.125V13.875C15.125 14.2065 14.9933 14.5245 14.7589 14.7589C14.5245 14.9933 14.2065 15.125 13.875 15.125H10.125C9.79348 15.125 9.47554 14.9933 9.24112 14.7589C9.0067 14.5245 8.875 14.2065 8.875 13.875V10.125ZM8.875 18.25C8.875 17.9185 9.0067 17.6005 9.24112 17.3661C9.47554 17.1317 9.79348 17 10.125 17H13.875C14.2065 17 14.5245 17.1317 14.7589 17.3661C14.9933 17.6005 15.125 17.9185 15.125 18.25V22C15.125 22.3315 14.9933 22.6495 14.7589 22.8839C14.5245 23.1183 14.2065 23.25 13.875 23.25H10.125C9.79348 23.25 9.47554 23.1183 9.24112 22.8839C9.0067 22.6495 8.875 22.3315 8.875 22V18.25ZM17 2C17 1.66848 17.1317 1.35054 17.3661 1.11612C17.6005 0.881696 17.9185 0.75 18.25 0.75H22C22.3315 0.75 22.6495 0.881696 22.8839 1.11612C23.1183 1.35054 23.25 1.66848 23.25 2V5.75C23.25 6.08152 23.1183 6.39946 22.8839 6.63388C22.6495 6.8683 22.3315 7 22 7H18.25C17.9185 7 17.6005 6.8683 17.3661 6.63388C17.1317 6.39946 17 6.08152 17 5.75V2ZM17 10.125C17 9.79348 17.1317 9.47554 17.3661 9.24112C17.6005 9.0067 17.9185 8.875 18.25 8.875H22C22.3315 8.875 22.6495 9.0067 22.8839 9.24112C23.1183 9.47554 23.25 9.79348 23.25 10.125V13.875C23.25 14.2065 23.1183 14.5245 22.8839 14.7589C22.6495 14.9933 22.3315 15.125 22 15.125H18.25C17.9185 15.125 17.6005 14.9933 17.3661 14.7589C17.1317 14.5245 17 14.2065 17 13.875V10.125ZM17 18.25C17 17.9185 17.1317 17.6005 17.3661 17.3661C17.6005 17.1317 17.9185 17 18.25 17H22C22.3315 17 22.6495 17.1317 22.8839 17.3661C23.1183 17.6005 23.25 17.9185 23.25 18.25V22C23.25 22.3315 23.1183 22.6495 22.8839 22.8839C22.6495 23.1183 22.3315 23.25 22 23.25H18.25C17.9185 23.25 17.6005 23.1183 17.3661 22.8839C17.1317 22.6495 17 22.3315 17 22V18.25Z" fill="black"/>
</svg>
