<svg width="38" height="37" viewBox="0 0 38 37" fill="none" xmlns="http://www.w3.org/2000/svg">
<path d="M19 9.25C17.8257 9.25 16.6777 9.58906 15.7013 10.2243C14.7249 10.8596 13.9639 11.7625 13.5145 12.8189C13.0651 13.8752 12.9475 15.0377 13.1766 16.1591C13.4057 17.2806 13.9712 18.3107 14.8016 19.1192C15.6319 19.9277 16.6899 20.4783 17.8417 20.7014C18.9934 20.9245 20.1873 20.81 21.2722 20.3724C22.3571 19.9349 23.2844 19.1939 23.9369 18.2431C24.5893 17.2924 24.9375 16.1747 24.9375 15.0312C24.9375 13.498 24.3119 12.0275 23.1984 10.9433C22.085 9.85909 20.5747 9.25 19 9.25Z" fill="black"/>
<path d="M19 2.3125C15.7119 2.3125 12.4976 3.26188 9.76365 5.04059C7.02968 6.81929 4.89882 9.34743 3.64051 12.3053C2.3822 15.2632 2.05297 18.518 2.69445 21.658C3.33593 24.7981 4.91931 27.6824 7.24436 29.9463C9.5694 32.2102 12.5317 33.7519 15.7566 34.3765C18.9816 35.0011 22.3243 34.6805 25.3621 33.4553C28.3999 32.2301 30.9964 30.1553 32.8232 27.4933C34.65 24.8313 35.625 21.7016 35.625 18.5C35.62 14.2083 33.8668 10.0938 30.7501 7.05912C27.6334 4.02443 23.4077 2.3174 19 2.3125V2.3125ZM28.4905 28.8207C28.4668 27.3041 27.8322 25.8572 26.7234 24.7918C25.6146 23.7265 24.1203 23.1279 22.5625 23.125H15.4375C13.8797 23.1279 12.3854 23.7265 11.2766 24.7918C10.1678 25.8572 9.53317 27.3041 9.50951 28.8207C7.35605 26.9484 5.83744 24.4834 5.15475 21.7521C4.47206 19.0208 4.6575 16.1521 5.68652 13.5256C6.71553 10.8992 8.53958 8.63912 10.9171 7.04453C13.2947 5.44994 16.1136 4.59612 19.0006 4.59612C21.8876 4.59612 24.7065 5.44994 27.0841 7.04453C29.4616 8.63912 31.2857 10.8992 32.3147 13.5256C33.3437 16.1521 33.5291 19.0208 32.8465 21.7521C32.1638 24.4834 30.6452 26.9484 28.4917 28.8207H28.4905Z" fill="black"/>
</svg>
